<?xml version="1.0" encoding="UTF-8" standalone="no"?>
<!-- Created with Inkscape (http://www.inkscape.org/) -->

<svg
   width="128"
   height="128"
   viewBox="0 0 33.866667 33.866667"
   version="1.1"
   id="svg1"
   xml:space="preserve"
   xmlns="http://www.w3.org/2000/svg"
   xmlns:svg="http://www.w3.org/2000/svg"><g
     id="layer1"><g
       id="g6"
       transform="translate(0.63073592,0.19373666)"><path
         fill="#5c913b"
         d="M 17.870491,8.8684081 C 17.624782,5.9349794 19.79536,4.6815973 19.79536,4.6815973 16.957731,4.7818324 15.454205,7.1883615 15.454205,7.1883615 14.787154,6.0352145 16.293341,3.6295724 17.378186,3.0024379 14.541445,3.1026729 14.122764,4.8829545 14.122764,4.8829545 12.789548,2.5757735 13.209116,0.79637891 13.209116,0.79637891 12.214749,1.3702913 11.641723,2.6706863 11.309972,3.9116499 L 9.2538221,1.5432634 C 9.0498037,2.4693291 9.3930867,4.3587162 9.7620938,5.9420757 7.0521983,4.354281 4.5259193,5.8090203 4.5259193,5.8090203 c 3.5037928,1.053799 4.8343471,3.360093 4.8343471,3.360093 0,0 -3.5020188,-1.0529119 -5.0082062,1.3536177 2.3036329,-0.08161 3.9916627,0.442631 5.1944838,1.091054 -1.0316231,0.256353 -2.7897288,-0.209341 -3.8630425,1.216127 0,0 2.8367416,-0.100235 3.4159763,0.935823 -1.9266426,0.54464 -3.1711543,1.996718 -3.1711543,1.996718 3.9224739,-0.725595 8.0924305,1.480464 8.0924305,1.480464 l 5.427775,-3.133012 c -0.91276,-4.086576 2.343549,-5.9670925 2.343549,-5.9670925 -2.416286,-1.6809336 -3.921587,0.7255956 -3.921587,0.7255956 z"
         id="path1"
         style="stroke-width:0.887036" /><path
         fill="#ffac33"
         d="m 27.910854,20.618976 c 2.206946,3.822239 1.08041,8.604251 -2.516522,10.680803 -3.596931,2.076551 -8.301771,0.661729 -10.50783,-3.159623 l -1.409501,-2.442011 c -2.206946,-3.823126 -1.079523,-8.603364 2.516522,-10.679915 3.596932,-2.076552 8.301771,-0.662616 10.50783,3.159623 z"
         id="path2"
         style="display:inline;fill:#5c913b;fill-opacity:1;stroke-width:0.887036" /><path
         fill="#ffcc4d"
         d="m 28.799664,22.822374 c -0.18539,-0.752207 -0.478999,-1.494656 -0.88881,-2.203398 l -0.164989,-0.286512 v 8.87e-4 l -1.730607,-0.734466 0.55351,-1.304831 -0.06653,-0.116201 C 24.70599,15.064356 21.250984,13.550185 18.087813,14.216349 l -0.725595,1.708432 -1.671176,-0.709629 c -2.909479,1.882291 -4.051095,5.605181 -2.893512,8.983902 l 0.892358,0.378765 -0.355702,0.839136 c 0.04879,0.09314 0.09048,0.188052 0.144587,0.279416 l 1.409501,2.442011 c 0.60762,1.052912 1.410387,1.915998 2.322261,2.580388 l 0.203131,-0.477225 1.730607,0.734466 -0.287399,0.677695 c 0.589879,0.245709 1.203708,0.412472 1.828181,0.507385 l 0.190713,-0.449727 1.244512,0.527786 c 1.014769,-0.04258 2.022442,-0.298044 2.965362,-0.783253 l -0.01508,-0.0062 0.734466,-1.730608 1.054686,0.447066 C 27.322747,29.70401 27.7228,29.186868 28.04302,28.626261 l -1.501752,-0.638666 0.734466,-1.730608 1.478689,0.627135 c 0.169424,-0.620926 0.266998,-1.265801 0.280304,-1.922208 L 28.0102,24.527267 28.744666,22.796659 Z m -5.510269,-6.424803 1.729721,0.735353 -0.734466,1.729721 -1.730608,-0.734466 z m 0.260789,4.196568 -0.734466,1.729721 -1.730608,-0.733579 0.734466,-1.730608 z m -3.722891,-5.6655 1.730608,0.734466 -0.735353,1.731495 -1.730608,-0.734466 z m -1.468932,3.461215 1.730608,0.734466 -0.734466,1.730608 -1.729721,-0.734466 z m -3.461215,-1.468045 1.729721,0.734466 -0.734466,1.728834 -1.729721,-0.734466 z m -2.203398,5.191823 0.734466,-1.731494 1.730608,0.734465 -0.735353,1.731495 z m 3.722004,5.663726 -1.730607,-0.733579 0.734465,-1.730607 1.730608,0.734466 z m -0.261676,-4.195681 0.735353,-1.730608 1.730608,0.733579 -0.735353,1.731495 z m 3.722004,5.664613 -1.72972,-0.734466 0.734466,-1.72972 1.72972,0.735352 z m -0.260788,-4.195681 0.734466,-1.731495 1.730607,0.735353 -0.734466,1.731495 z m 3.72289,5.666387 -1.730607,-0.734466 0.734466,-1.730608 1.730607,0.734466 z m 1.469819,-3.462989 -1.72972,-0.733579 0.734466,-1.731495 1.72972,0.734466 z m 1.468932,-3.460328 -1.730607,-0.734466 0.734466,-1.729721 1.730607,0.733579 z"
         id="path3"
         style="stroke-width:0.887036" /></g><g
       id="g7"
       transform="matrix(0.04226085,0.4235968,-0.4235968,0.04226085,18.846229,15.249483)"
       style="opacity:1;stroke:#190f2d;stroke-width:1.70543;stroke-dasharray:none;stroke-opacity:1"><path
         fill="#bb1a34"
         d="M 33.207,19.773 24.339,10.918 11.105,24.54 19.789,33.225 19.79,33.224 C 21.509,34.939 23.881,36 26.5,36 31.746,36 36,31.746 36,26.5 36,23.872 34.932,21.493 33.207,19.773 Z"
         id="path1-2"
         style="stroke:#190f2d;stroke-width:1.70543;stroke-dasharray:none;stroke-opacity:1" /><path
         fill="#fdcb58"
         d="M 15.921,2.513 C 14.229,0.957 11.979,0 9.5,0 4.253,0 0,4.253 0,9.5 c 0,2.479 0.958,4.73 2.514,6.421 L 2.5,15.935 11.105,24.54 24.339,10.918 Z"
         id="path2-2"
         style="fill:#ececec;fill-opacity:1;stroke:#190f2d;stroke-width:1.70543;stroke-dasharray:none;stroke-opacity:1" /></g></g></svg>